<svg width="246" height="30" xmlns="http://www.w3.org/2000/svg"><g fill="none" fill-rule="evenodd"><path d="M6.371 14.897C2.852 14.897 0 11.823 0 8.03s2.852-6.865 6.371-6.865c3.519 0 6.371 3.073 6.371 6.865 0 3.792-2.852 6.866-6.37 6.866zm0-1.268c2.79 0 5.053-2.506 5.053-5.598S9.162 2.433 6.371 2.433c-2.79 0-5.053 2.506-5.053 5.598s2.263 5.598 5.053 5.598zM22.19 28.416c-3.52 0-6.372-3.073-6.372-6.865 0-3.792 2.853-6.866 6.371-6.866 3.52 0 6.372 3.074 6.372 6.866s-2.853 6.865-6.372 6.865zm0-1.267c2.79 0 5.052-2.506 5.052-5.598s-2.262-5.598-5.053-5.598c-2.79 0-5.053 2.506-5.053 5.598s2.263 5.598 5.053 5.598zm-6.187-14.935c-.044-.953.005-1.716.146-2.288.12-.49.134-.973.784-2.049.264-.438.553-.857.866-1.258l4.342-5.558.58.453-4.342 5.558c-.108.144-.1.333.018.425.118.092.303.054.417-.085l4.342-5.558.58.453-4.343 5.558c-.107.144-.1.333.018.425.118.092.303.053.417-.086l4.343-5.558.58.453-4.343 5.558c-.107.144-.1.333.018.425.118.093.303.054.417-.085l4.342-5.558.58.453-4.343 5.558c-.313.4-.65.782-1.011 1.145-.071.071-.422.445-.797.75-.398.321-.82.573-.873.606-.404.258-1.091.487-2.061.687L4.7 28.523l-1.16-.907 12.463-15.402zm41.789-9.902c2.245 1.17 3.993 2.81 5.242 4.923s1.873 4.538 1.873 7.275-.63 5.169-1.893 7.295c-1.263 2.126-3.043 3.774-5.342 4.943-2.299 1.17-4.936 1.754-7.913 1.754H38V.558h12.039c2.923 0 5.507.585 7.753 1.754zm-3.807 19.294c1.09-.665 1.94-1.608 2.551-2.83.611-1.223.917-2.618.917-4.186 0-1.595-.326-3.003-.977-4.226-.65-1.222-1.548-2.172-2.69-2.85-1.143-.678-2.445-1.016-3.907-1.016h-4.584v16.104h4.943c1.408 0 2.657-.332 3.747-.996zM68.535.558h7.295v27.944h-7.295V.558zM95.74 6.817c-1.687-.559-3.103-.838-4.245-.838-.904 0-1.615.166-2.133.499-.518.332-.777.817-.777 1.455 0 .61.226 1.122.677 1.534.452.412 1.01.744 1.675.997.664.252 1.647.578 2.95.977 1.94.558 3.54 1.116 4.803 1.674 1.262.558 2.345 1.415 3.249 2.57.903 1.157 1.355 2.665 1.355 4.525 0 1.86-.492 3.448-1.475 4.764-.983 1.315-2.332 2.305-4.046 2.97-1.714.664-3.62.996-5.72.996-2.312 0-4.618-.405-6.916-1.216-2.3-.81-4.286-1.92-5.96-3.328l2.83-5.7c1.409 1.249 3.076 2.272 5.003 3.069 1.927.797 3.634 1.196 5.122 1.196 1.09 0 1.947-.2 2.572-.598.624-.399.936-.983.936-1.754a2.07 2.07 0 0 0-.697-1.595c-.465-.425-1.05-.764-1.754-1.016s-1.694-.551-2.97-.897c-1.913-.531-3.495-1.07-4.744-1.614-1.249-.545-2.318-1.369-3.209-2.472-.89-1.103-1.335-2.571-1.335-4.405 0-1.727.458-3.242 1.375-4.544.917-1.302 2.22-2.305 3.907-3.01C87.9.352 89.86 0 92.094 0c2.02 0 4.012.286 5.979.857 1.967.571 3.694 1.335 5.182 2.292l-2.75 5.82a24.509 24.509 0 0 0-4.764-2.152zm28.243.498c-1.25-.678-2.485-1.017-3.708-1.017-1.408 0-2.69.352-3.846 1.057-1.156.704-2.066 1.674-2.73 2.91-.665 1.235-.997 2.61-.997 4.125 0 1.515.332 2.89.996 4.126.665 1.236 1.575 2.206 2.73 2.91 1.157.704 2.439 1.057 3.847 1.057 1.143 0 2.34-.293 3.588-.877a11.371 11.371 0 0 0 3.349-2.392l4.265 4.584c-1.515 1.595-3.315 2.863-5.402 3.807-2.086.943-4.152 1.415-6.198 1.415-2.764 0-5.262-.638-7.494-1.913-2.233-1.276-3.987-3.017-5.262-5.222-1.276-2.206-1.914-4.678-1.914-7.415 0-2.71.651-5.155 1.954-7.335 1.302-2.179 3.089-3.893 5.361-5.142C114.795.744 117.34.12 120.157.12c2.073 0 4.119.431 6.139 1.295 2.02.864 3.734 2.04 5.142 3.528l-4.225 5.102a10.417 10.417 0 0 0-3.23-2.73zm31.63-5.322c2.3 1.25 4.107 2.963 5.422 5.142 1.316 2.18 1.973 4.624 1.973 7.335 0 2.737-.657 5.209-1.973 7.415-1.315 2.205-3.123 3.946-5.421 5.222-2.299 1.275-4.87 1.913-7.714 1.913-2.843 0-5.414-.631-7.713-1.893-2.299-1.263-4.106-3.003-5.421-5.222-1.316-2.22-1.974-4.698-1.974-7.435 0-2.71.658-5.155 1.974-7.335 1.315-2.179 3.122-3.893 5.42-5.142C142.486.744 145.056.12 147.9.12c2.844 0 5.415.624 7.714 1.873zm-11.48 5.382c-1.182.717-2.12 1.707-2.81 2.97-.691 1.262-1.036 2.65-1.036 4.165 0 1.541.352 2.943 1.056 4.206.704 1.262 1.64 2.258 2.81 2.99a7.083 7.083 0 0 0 3.827 1.095c1.382 0 2.65-.365 3.807-1.096 1.156-.73 2.066-1.727 2.73-2.99.665-1.262.997-2.664.997-4.205 0-1.515-.332-2.903-.997-4.166-.664-1.262-1.574-2.252-2.73-2.97a7.079 7.079 0 0 0-3.807-1.076 7.282 7.282 0 0 0-3.847 1.077z" fill="#4F4F4F"/><path d="M166 1h22.12v5.84h-14.8v5.24h13.36v5.8l-13.36.04v5.28h15.2v5.84H166V1zm47.6 28.04l-1.92-4.96h-12.12l-1.96 4.96h-7.52L202.12 1h7.52l11.76 28.04h-7.8zm-11.84-10.56h7.76l-3.84-10-3.92 10zM221.48 1h24.04v6.04h-8.4v22h-7.32v-22h-8.32V1z" fill="#FF4070"/></g></svg>