<svg id="Warstwa_1" xmlns="http://www.w3.org/2000/svg" viewBox="0 0 246 30"><style>.st0{fill:#fff}</style><g id="_x28_DONE_x29_-Coming-soon-page"><g id="coming-soon-page-2" transform="translate(-48 -32)"><g id="Header_x2F_web_x2F_not-logged-in_x2F_white-on-black-bg" transform="translate(48 32)"><g id="Logo_x2F_with-type_x2F_black-on-white"><g id="Logo_x2F_no-type_x2F_black"><g id="Group" transform="translate(0 1.115)"><path id="Oval-Copy" class="st0" d="M6.4 13.8C2.9 13.8 0 10.7 0 6.9S2.9 0 6.4 0s6.4 3.1 6.4 6.9-2.9 6.9-6.4 6.9zm0-1.3c2.8 0 5.1-2.5 5.1-5.6S9.2 1.3 6.4 1.3 1.3 3.8 1.3 6.9s2.3 5.6 5.1 5.6z"/><path id="Oval-Copy_1_" class="st0" d="M22.2 27.3c-3.5 0-6.4-3.1-6.4-6.9s2.9-6.9 6.4-6.9 6.4 3.1 6.4 6.9-2.9 6.9-6.4 6.9zm0-1.3c2.8 0 5.1-2.5 5.1-5.6s-2.3-5.6-5.1-5.6-5.1 2.5-5.1 5.6 2.3 5.6 5.1 5.6z"/><path id="Path-4" class="st0" d="M16 11.1c0-1 0-1.7.1-2.3.1-.5.1-1 .8-2 .3-.4.6-.9.9-1.3l4.3-5.6.6.5L18.4 6c-.1.1-.1.3 0 .4s.3.1.4-.1L23.1.7l.6.5-4.3 5.6c-.1.1-.1.3 0 .4.1.1.3.1.4-.1l4.3-5.6.7.5-4.3 5.6c-.1.1-.1.3 0 .4.1.1.3.1.4-.1l4.3-5.6.6.5-4.3 5.6c-.3.4-.7.8-1 1.1-.1.1-.4.4-.8.7-.4.3-.8.6-.9.6-.4.3-1.1.5-2.1.7l-12 15.9-1.2-.9L16 11.1z"/></g></g><path id="DISCO" class="st0" d="M57.8 2.3c2.2 1.2 4 2.8 5.2 4.9 1.2 2.1 1.9 4.5 1.9 7.3s-.6 5.2-1.9 7.3c-1.3 2.1-3 3.8-5.3 4.9-2.3 1.2-4.9 1.8-7.9 1.8H38V.6h12c3 0 5.5.5 7.8 1.7zM54 21.6c1.1-.7 1.9-1.6 2.6-2.8.6-1.2.9-2.6.9-4.2s-.3-3-1-4.2-1.5-2.2-2.7-2.9-2.4-1-3.9-1h-4.6v16.1h4.9c1.4 0 2.7-.3 3.8-1zM68.5.6h7.3v27.9h-7.3V.6zm27.2 6.2c-1.6-.5-3.1-.8-4.2-.8-.9 0-1.6.2-2.1.5s-.8.8-.8 1.5c0 .6.2 1.1.7 1.5.5.4 1 .7 1.7 1s1.6.6 2.9 1c1.9.6 3.5 1.1 4.8 1.7s2.3 1.4 3.2 2.6 1.4 2.7 1.4 4.5-.5 3.4-1.5 4.8-2.3 2.3-4 3c-1.7.7-3.6 1-5.7 1-2.3 0-4.6-.4-6.9-1.2-2.3-.8-4.3-1.9-6-3.3l2.8-5.7c1.4 1.2 3.1 2.3 5 3.1 1.9.8 3.6 1.2 5.1 1.2 1.1 0 1.9-.2 2.6-.6.6-.4.9-1 .9-1.8 0-.6-.2-1.2-.7-1.6s-1-.8-1.8-1c-.7-.3-1.7-.6-3-.9-1.9-.5-3.5-1.1-4.7-1.6-1.2-.5-2.3-1.4-3.2-2.5-.9-1.1-1.3-2.6-1.3-4.4 0-1.7.5-3.2 1.4-4.5.9-1.3 2.2-2.3 3.9-3C87.9.4 89.9 0 92.1 0c2 0 4 .3 6 .9 2 .6 3.7 1.3 5.2 2.3L100.5 9c-1.5-.9-3.1-1.6-4.8-2.2zm28.3.5c-1.2-.7-2.5-1-3.7-1-1.4 0-2.7.4-3.8 1.1s-2.1 1.7-2.7 2.9-1 2.6-1 4.1.3 2.9 1 4.1 1.6 2.2 2.7 2.9c1.2.7 2.4 1.1 3.8 1.1 1.1 0 2.3-.3 3.6-.9 1.2-.6 2.4-1.4 3.3-2.4l4.3 4.6c-1.5 1.6-3.3 2.9-5.4 3.8s-4.2 1.4-6.2 1.4c-2.8 0-5.3-.6-7.5-1.9-2.2-1.3-4-3-5.3-5.2-1.3-2.2-1.9-4.7-1.9-7.4s.7-5.2 2-7.3 3.1-3.9 5.4-5.1 4.8-1.9 7.6-1.9c2.1 0 4.1.4 6.1 1.3s3.7 2 5.1 3.5l-4.2 5.1c-.9-1.2-2-2.1-3.2-2.8zM155.6 2c2.3 1.2 4.1 3 5.4 5.1 1.3 2.2 2 4.6 2 7.3s-.7 5.2-2 7.4-3.1 3.9-5.4 5.2c-2.3 1.3-4.9 1.9-7.7 1.9s-5.4-.6-7.7-1.9c-2.3-1.3-4.1-3-5.4-5.2s-2-4.7-2-7.4.7-5.2 2-7.3 3.1-3.9 5.4-5.1c2.3-1.2 4.9-1.9 7.7-1.9s5.4.6 7.7 1.9zm-11.5 5.4c-1.2.7-2.1 1.7-2.8 3-.7 1.3-1 2.7-1 4.2s.4 2.9 1.1 4.2c.7 1.3 1.6 2.3 2.8 3 1.2.7 2.4 1.1 3.8 1.1s2.7-.4 3.8-1.1c1.2-.7 2.1-1.7 2.7-3 .7-1.3 1-2.7 1-4.2s-.3-2.9-1-4.2-1.6-2.3-2.7-3-2.4-1.1-3.8-1.1-2.7.4-3.9 1.1z"/><path id="EAT" d="M166 1h22.1v5.8h-14.8V12h13.4v5.8h-13.4v5.3h15.2V29H166V1zm47.6 28l-1.9-5h-12.1l-2 5h-7.5l12-28h7.5l11.8 28h-7.8zm-11.8-10.5h7.8l-3.8-10-4 10zM221.5 1h24v6h-8.4v22h-7.3V7h-8.3V1z" fill="#ff4070"/></g></g></g></g></svg>