<?xml version="1.0" encoding="UTF-8"?>
<svg width="21px" height="21px" viewBox="0 0 21 21" version="1.1" xmlns="http://www.w3.org/2000/svg" xmlns:xlink="http://www.w3.org/1999/xlink">
    <!-- Generator: sketchtool 50.2 (55047) - http://www.bohemiancoding.com/sketch -->
    <title>5D19610A-CB09-43BB-8C51-17E65F38C6FB-548-00000AB3BEE7DD11</title>
    <desc>Created with sketchtool.</desc>
    <defs></defs>
    <g id="(DONE)-Vendor-Backend" stroke="none" stroke-width="1" fill="none" fill-rule="evenodd">
        <g id="Reservations/last-24-hours" transform="translate(-26.000000, -161.000000)" fill="#4F4F4F" fill-rule="nonzero">
            <g id="component/vendor-backend/screen/reservations/last-24-hours">
                <g id="component/vendor-backend/left-menu/expanded">
                    <g id="Group" transform="translate(0.000000, 104.000000)">
                        <g id="icon/date/black" transform="translate(25.000000, 56.000000)">
                            <g id="Group" transform="translate(1.920000, 1.920000)">
                                <polygon id="Shape" points="15.0374286 16.3494947 14.0428571 15.4261137 13.6388571 15.8011958 15.0374286 17.0999242 17.1611429 15.1279579 16.7571429 14.7528758"></polygon>
                                <path d="M4.894,9.08924211 L4.46771429,9.08924211 C4.22657143,9.08924211 4.03114286,9.27068211 4.03114286,9.49456421 C4.03114286,9.71844632 4.22657143,9.89988632 4.46771429,9.89988632 L4.894,9.89988632 C5.13514286,9.89988632 5.33057143,9.71844632 5.33057143,9.49456421 C5.33057143,9.27068211 5.13514286,9.08924211 4.894,9.08924211 Z" id="Shape"></path>
                                <path d="M4.894,12.5002611 L4.46771429,12.5002611 C4.22657143,12.5002611 4.03114286,12.6817011 4.03114286,12.9055832 C4.03114286,13.1294653 4.22657143,13.3109053 4.46771429,13.3109053 L4.894,13.3109053 C5.13514286,13.3109053 5.33057143,13.1294653 5.33057143,12.9055832 C5.33057143,12.6817011 5.13514286,12.5002611 4.894,12.5002611 Z" id="Shape"></path>
                                <path d="M4.894,15.9136674 L4.46771429,15.9136674 C4.22657143,15.9136674 4.03114286,16.0951074 4.03114286,16.3189895 C4.03114286,16.5428716 4.22657143,16.7243116 4.46771429,16.7243116 L4.894,16.7243116 C5.13514286,16.7243116 5.33057143,16.5428716 5.33057143,16.3189895 C5.33057143,16.0953726 5.13514286,15.9136674 4.894,15.9136674 Z" id="Shape"></path>
                                <path d="M10.0831429,9.08924211 L9.65685714,9.08924211 C9.41571429,9.08924211 9.22028571,9.27068211 9.22028571,9.49456421 C9.22028571,9.71844632 9.41571429,9.89988632 9.65685714,9.89988632 L10.0831429,9.89988632 C10.3242857,9.89988632 10.5197143,9.71844632 10.5197143,9.49456421 C10.5197143,9.27068211 10.3242857,9.08924211 10.0831429,9.08924211 Z" id="Shape"></path>
                                <path d="M10.0831429,12.5002611 L9.65685714,12.5002611 C9.41571429,12.5002611 9.22028571,12.6817011 9.22028571,12.9055832 C9.22028571,13.1294653 9.41571429,13.3109053 9.65685714,13.3109053 L10.0831429,13.3109053 C10.3242857,13.3109053 10.5197143,13.1294653 10.5197143,12.9055832 C10.5197143,12.6817011 10.3242857,12.5002611 10.0831429,12.5002611 Z" id="Shape"></path>
                                <path d="M10.0831429,15.9136674 L9.65685714,15.9136674 C9.41571429,15.9136674 9.22028571,16.0951074 9.22028571,16.3189895 C9.22028571,16.5428716 9.41571429,16.7243116 9.65685714,16.7243116 L10.0831429,16.7243116 C10.3242857,16.7243116 10.5197143,16.5428716 10.5197143,16.3189895 C10.5197143,16.0953726 10.3242857,15.9136674 10.0831429,15.9136674 Z" id="Shape"></path>
                                <path d="M14.8462857,9.89988632 L15.2725714,9.89988632 C15.5137143,9.89988632 15.7091429,9.71844632 15.7091429,9.49456421 C15.7091429,9.27068211 15.5137143,9.08924211 15.2725714,9.08924211 L14.8462857,9.08924211 C14.6051429,9.08924211 14.4097143,9.27068211 14.4097143,9.49456421 C14.4094286,9.71844632 14.6051429,9.89988632 14.8462857,9.89988632 Z" id="Shape"></path>
                                <path d="M14.8462857,13.3109053 L15.2725714,13.3109053 C15.5137143,13.3109053 15.7091429,13.1294653 15.7091429,12.9055832 C15.7091429,12.6817011 15.5137143,12.5002611 15.2725714,12.5002611 L14.8462857,12.5002611 C14.6051429,12.5002611 14.4097143,12.6817011 14.4097143,12.9055832 C14.4094286,13.1294653 14.6051429,13.3109053 14.8462857,13.3109053 Z" id="Shape"></path>
                                <path d="M17.91,1.45974316 L17.91,0.698703158 C17.91,0.313541053 17.5722857,0 17.1574286,0 L16.5351429,0 C16.1202857,0 15.7825714,0.313541053 15.7825714,0.698703158 L15.7825714,1.44462316 L10.9337143,1.44462316 L10.9337143,0.698703158 C10.9337143,0.313541053 10.596,0 10.1811429,0 L9.55857143,0 C9.14371429,0 8.806,0.313541053 8.806,0.698703158 L8.806,1.44462316 L3.95742857,1.44462316 L3.95742857,0.698703158 C3.95742857,0.313541053 3.61971429,0 3.20485714,0 L2.58257143,0 C2.16771429,0 1.83,0.313541053 1.83,0.698703158 L1.83,1.47327158 C0.784571429,1.63110316 0,2.46482526 0,3.47521263 L0,17.8341726 C0,18.9538484 0.981142857,19.8647621 2.18714286,19.8647621 L17.6531429,19.8647621 C18.8591429,19.8647621 19.8402857,18.9535832 19.8402857,17.8341726 L19.8402857,3.47521263 C19.8405714,2.43644211 18.9954286,1.57831579 17.91,1.45974316 Z M16.354,0.698703158 C16.354,0.605861053 16.4351429,0.530526316 16.5351429,0.530526316 L17.1574286,0.530526316 C17.2574286,0.530526316 17.3385714,0.605861053 17.3385714,0.698703158 L17.3385714,2.72106947 C17.3385714,2.81391158 17.2574286,2.88924632 17.1574286,2.88924632 L16.5351429,2.88924632 C16.4351429,2.88924632 16.354,2.81391158 16.354,2.72106947 L16.354,0.698703158 Z M9.37771429,0.698703158 C9.37771429,0.605861053 9.45885714,0.530526316 9.55885714,0.530526316 L10.1814286,0.530526316 C10.2814286,0.530526316 10.3625714,0.605861053 10.3625714,0.698703158 L10.3625714,2.72106947 C10.3625714,2.81391158 10.2814286,2.88924632 10.1814286,2.88924632 L9.55885714,2.88924632 C9.45885714,2.88924632 9.37771429,2.81391158 9.37771429,2.72106947 L9.37771429,0.698703158 Z M2.40171429,0.698703158 C2.40171429,0.605861053 2.48285714,0.530526316 2.58285714,0.530526316 L3.20514286,0.530526316 C3.30514286,0.530526316 3.38628571,0.605861053 3.38628571,0.698703158 L3.38628571,2.72106947 C3.38628571,2.81391158 3.30514286,2.88924632 3.20514286,2.88924632 L2.58285714,2.88924632 C2.48285714,2.88924632 2.40171429,2.81391158 2.40171429,2.72106947 L2.40171429,0.698703158 Z M1.83028571,2.01334737 L1.83028571,2.72133474 C1.83028571,3.10649684 2.168,3.42003789 2.58285714,3.42003789 L3.20514286,3.42003789 C3.62,3.42003789 3.95771429,3.10649684 3.95771429,2.72133474 L3.95771429,1.97514947 L8.80657143,1.97514947 L8.80657143,2.72133474 C8.80657143,3.10649684 9.14428571,3.42003789 9.55914286,3.42003789 L10.1817143,3.42003789 C10.5965714,3.42003789 10.9342857,3.10649684 10.9342857,2.72133474 L10.9342857,1.97514947 L15.7831429,1.97514947 L15.7831429,2.72133474 C15.7831429,3.10649684 16.1208571,3.42003789 16.5357143,3.42003789 L17.158,3.42003789 C17.5728571,3.42003789 17.9105714,3.10649684 17.9105714,2.72133474 L17.9105714,1.99584 C18.6797143,2.11069895 19.2697143,2.72929263 19.2697143,3.47521263 L19.2697143,6.05675368 L0.571428571,6.05675368 L0.571428571,3.47521263 C0.571428571,2.75926737 1.10485714,2.16348632 1.83028571,2.01334737 Z M17.6531429,19.3342358 L2.18742857,19.3342358 C1.29657143,19.3342358 0.571714286,18.6612632 0.571714286,17.8341726 L0.571714286,6.58754526 L19.2691429,6.58754526 L19.2691429,17.8341726 C19.2691429,18.6612632 18.5442857,19.3342358 17.6531429,19.3342358 Z" id="Shape"></path>
                            </g>
                        </g>
                    </g>
                </g>
            </g>
        </g>
    </g>
</svg>