<?xml version="1.0" encoding="utf-8"?>
<!-- Generator: Adobe Illustrator 22.0.1, SVG Export Plug-In . SVG Version: 6.00 Build 0)  -->
<svg version="1.1" id="Warstwa_1" xmlns="http://www.w3.org/2000/svg" xmlns:xlink="http://www.w3.org/1999/xlink" x="0px" y="0px"
	 viewBox="0 0 50 50" style="enable-background:new 0 0 50 50;" xml:space="preserve">
<style type="text/css">
	.st0{fill:#4F4F4F;}
	.st1{fill:#FF4070;}
	.st2{fill:none;stroke:#4F4F4F;}
</style>
<g>
	<title>icon/customers</title>
	<desc>Created with Sketch.</desc>
	<g id="icon_x2F_customers">
		<g id="Group-3" transform="translate(1.000000, 2.000000)">
			<g id="icon_x2F_chat-with-love">
				<g id="Chat-with-love" transform="translate(1.500000, 0.000000)">
					<g id="Oval-5">
						<path class="st0" d="M7.5,18l-2.2-4.1C2.2,13,0,10.2,0,7.1C0,3.2,3.4,0,7.5,0S15,3.2,15,7.1c0,3.1-2.2,5.9-5.3,6.8h0L7.5,18z
							 M7.5,1C3.9,1,1,3.7,1,7.1c0,2.7,1.9,5.1,4.6,5.8L6,13.1l1.5,2.8L9,13.1l0.4-0.1c2.7-0.8,4.6-3.2,4.6-5.8C14,3.7,11.1,1,7.5,1
							z"/>
					</g>
					<g id="icon_x2F_love" transform="translate(3.750000, 3.750000)">
						<g id="Path-19">
							<path class="st1" d="M4.3,7.3C1.9,4.8,0.6,3.3,0.4,2.6c-0.3-1,1.2-1.9,1.9-1.9c0.5,0,1.2,0.6,2,1.9c0.8-1.3,1.4-1.9,1.7-1.9
								c0.5,0,2.1-0.4,1.5,1.9C7.1,4.2,6,5.7,4.3,7.3z"/>
						</g>
					</g>
				</g>
			</g>
			<g id="icon_x2F_chat-with-love_1_" transform="translate(16.000000, 9.000000)">
				<g id="Chat-with-love_1_" transform="translate(1.500000, 0.000000)">
					<g id="Oval-5_1_">
						<path class="st0" d="M7.5,18l-2.2-4.1C2.2,13,0,10.2,0,7.1C0,3.2,3.4,0,7.5,0S15,3.2,15,7.1c0,3.1-2.2,5.9-5.3,6.8L7.5,18z
							 M7.5,1C3.9,1,1,3.7,1,7.1c0,2.7,1.9,5.1,4.6,5.8L6,13.1l1.5,2.8L9,13.1l0.4-0.1c2.7-0.8,4.6-3.2,4.6-5.8C14,3.7,11.1,1,7.5,1
							z"/>
					</g>
					<g id="icon_x2F_love_1_" transform="translate(3.750000, 3.750000)">
						<g id="Path-19_1_">
							<path class="st1" d="M4.3,7.3C1.9,4.8,0.6,3.3,0.4,2.6c-0.3-1,1.2-1.9,1.9-1.9c0.5,0,1.2,0.6,2,1.9c0.8-1.3,1.4-1.9,1.7-1.9
								c0.5,0,2.1-0.4,1.5,1.9C7.1,4.2,6,5.7,4.3,7.3z"/>
						</g>
					</g>
				</g>
			</g>
			<g id="icon_x2F_chat-with-love_2_" transform="translate(31.000000, 1.000000)">
				<g id="Chat-with-love_2_" transform="translate(1.500000, 0.000000)">
					<g id="Oval-5_2_">
						<path class="st0" d="M7.5,18l-2.2-4.1C2.2,13,0,10.2,0,7.1C0,3.2,3.4,0,7.5,0S15,3.2,15,7.1c0,3.1-2.2,5.9-5.3,6.8L7.5,18z
							 M7.5,1C3.9,1,1,3.7,1,7.1c0,2.7,1.9,5.1,4.6,5.8L6,13.1l1.5,2.8L9,13.1l0.4-0.1c2.7-0.8,4.6-3.2,4.6-5.8C14,3.7,11.1,1,7.5,1
							z"/>
					</g>
					<g id="icon_x2F_love_2_" transform="translate(3.750000, 3.750000)">
						<g id="Path-19_2_">
							<path class="st1" d="M4.3,7.3C1.9,4.8,0.6,3.3,0.4,2.6c-0.3-1,1.2-1.9,1.9-1.9c0.5,0,1.2,0.6,2,1.9c0.8-1.3,1.4-1.9,1.7-1.9
								c0.5,0,2.1-0.4,1.5,1.9C7.1,4.2,6,5.7,4.3,7.3z"/>
						</g>
					</g>
				</g>
			</g>
			<g id="man1" transform="translate(0.000000, 18.000000)">
				<g id="icon_x2F_man1">
					<g id="Group" transform="translate(0.750000, 0.750000)">
						<g id="Path-3">
							<path class="st0" d="M8.5,15.6c-1.5,0-2.9-0.2-4-0.6c-1.7-0.6-2.1-1.5-2.1-2.1V5.9h12.1V13C14.5,14.9,11.3,15.6,8.5,15.6z
								 M3.4,6.9V13c0,0.9,2.3,1.7,5.1,1.7c2.8,0,5.1-0.7,5.1-1.7V6.9H3.4z"/>
						</g>
						<g id="Path-20">
							<path class="st0" d="M14.5,7.1H2.4L0,1.2l4.8,1.2l1.2-1.2h3.6l2.4,2.4L15.8,0L14.5,7.1z M3.1,6.1h10.6l0.6-3.2l-2.1,2.1
								L9.3,2.2H6.5L5.1,3.5L1.7,2.6L3.1,6.1z"/>
						</g>
					</g>
					<g id="Path-22">
						<rect x="4.2" y="16" transform="matrix(0.7071 -0.7071 0.7071 0.7071 -10.1298 8.5451)" class="st0" width="2.1" height="1"/>
					</g>
					<g id="Path-22_1_">
						
							<rect x="11.5" y="15.4" transform="matrix(0.7071 -0.7071 0.7071 0.7071 -8.1527 13.3181)" class="st0" width="1" height="2.1"/>
					</g>
				</g>
				<g id="icon_x2F_woman" transform="translate(16.000000, 10.000000)">
					<g id="Group_1_" transform="translate(0.750000, 0.750000)">
						<g id="Path-21">
							<path class="st0" d="M13.5,9L2.9,9C0.4,8.2,0.1,7.7,0,7.5c-0.3-0.7,1.4-3.3,2-4C3.9,1.2,6,0,8.3,0c3.4,0,6.1,2.4,8.1,7.1
								l0.2,0.4L13.5,9z M3.1,8h10.1l2-1c-1.8-4.1-4.1-6-7-6C6.4,1,4.5,2.1,2.8,4.1C1.9,5.2,1.2,6.6,1,7.1C1.2,7.3,1.9,7.6,3.1,8z"
								/>
						</g>
						<g id="Path-3_1_">
							<path class="st0" d="M8.2,15.8c-1.8,0-3.4-0.5-4.3-1.4C3.3,13.8,3,13.1,3,12.3V6.8c0-0.6,0.3-0.9,0.9-1c0.4,0,1,0.1,2,0.4
								l0.4,0.1c1.4,0.4,1.6,0.5,2,0.5c0.4,0,0.9-0.1,1.6-0.2c0.2,0,0.4-0.1,0.7-0.1c1.2-0.3,1.6-0.3,2-0.3c0.2,0,0.9,0,0.9,0.7v5.5
								C13.5,14.3,11.3,15.8,8.2,15.8C8.2,15.8,8.2,15.8,8.2,15.8z M4,6.8v5.5c0,0.5,0.2,1,0.6,1.4c0.7,0.7,2.1,1.1,3.6,1.1
								c2.5,0,4.3-1.1,4.3-2.5V7.1c-0.3,0-0.6,0.1-1.7,0.3c-0.3,0.1-0.5,0.1-0.7,0.1C9.3,7.7,8.8,7.8,8.2,7.8C7.7,7.8,7.4,7.6,6,7.2
								L5.6,7.1C4.8,6.8,4.3,6.7,4,6.8z"/>
						</g>
					</g>
					<g id="Path-22_2_">
						<rect x="4.9" y="16" transform="matrix(0.7071 -0.7071 0.7071 0.7071 -9.9101 9.0755)" class="st0" width="2.1" height="1"/>
					</g>
					<g id="Path-22_3_">
						
							<rect x="12.3" y="15.4" transform="matrix(0.7071 -0.7071 0.7071 0.7071 -7.9331 13.8484)" class="st0" width="1" height="2.1"/>
					</g>
				</g>
				<g id="icon_x2F_man2" transform="translate(31.000000, 0.000000)">
					<g id="Group_2_" transform="translate(1.500000, 2.250000)">
						<g id="Path-3_2_">
							<path class="st0" d="M8.6,14.3c-1.4,0-2.7-0.2-3.7-0.6C3.3,13.1,3,12.2,3,11.6V4.5h11.2v7.1C14.2,13.4,11.4,14.3,8.6,14.3z
								 M4,5.5v6.1c0,0.9,2,1.7,4.6,1.7s4.6-0.7,4.6-1.7V5.5H4z"/>
						</g>
						<g id="Path-21_1_">
							<path class="st0" d="M14.2,5.3H3.4L3.2,5.2c-2.6-1.5-2.9-2-3-2.2c-0.4-0.7-0.4-1.6,0-2.3c0.4-0.8,1.1-0.8,3.9-0.6
								c0.5,0,1,0,2,0.1c1.5,0,1.6,0,2.3,0.1c5.9,0.2,5.9,0.8,5.9,1.2V5.3z M3.6,4.3h9.6V1.6c-0.5-0.1-2.1-0.4-4.9-0.5
								c-0.6,0-0.8,0-2.2-0.1c-1,0-1.5,0-2-0.1C1.5,0.9,1.3,1,1.1,1.2C0.9,1.6,1,2.1,1.2,2.5C1.2,2.7,1.9,3.2,3.6,4.3z"/>
						</g>
					</g>
					<g id="Path-22_4_">
						<rect x="5.7" y="16" transform="matrix(0.7071 -0.7071 0.7071 0.7071 -9.6904 9.6058)" class="st0" width="2.1" height="1"/>
					</g>
					<g id="Path-22_5_">
						
							<rect x="13" y="15.4" transform="matrix(0.7071 -0.7071 0.7071 0.7071 -7.7134 14.3788)" class="st0" width="1" height="2.1"/>
					</g>
				</g>
			</g>
			<g id="Rectangle-11">
				<path class="st2" d="M0,0"/>
			</g>
		</g>
	</g>
</g>
</svg>
