<?xml version="1.0" encoding="UTF-8"?>
<svg width="24px" height="24px" viewBox="0 0 24 24" version="1.1" xmlns="http://www.w3.org/2000/svg" xmlns:xlink="http://www.w3.org/1999/xlink">
    <!-- Generator: Sketch 50.2 (55047) - http://www.bohemiancoding.com/sketch -->
    <title>icon/dashboard</title>
    <desc>Created with Sketch.</desc>
    <defs></defs>
    <g id="icon/dashboard" stroke="none" stroke-width="1" fill="none" fill-rule="evenodd">
        <g id="Group-2" transform="translate(1.000000, 0.000000)" fill="#4F4F4F" fill-rule="nonzero">
            <path d="M11.3530792,1.64976 L11.3530792,0.203389831 C11.3530792,0.0910607288 11.2601572,0 11.1455321,0 C11.0309069,0 10.9379849,0.0910607288 10.9379849,0.203389831 L10.9379849,1.64976 L0.622641509,1.64976 C0.278921626,1.65012767 0.000375185437,1.9230946 0,2.25992949 L0,19.3085288 C0.000375185437,19.6453637 0.278921626,19.9183306 0.622641509,19.9186983 L5.75505887,19.9186983 L4.70914151,23.7437776 C4.67951523,23.8523583 4.74515752,23.9639523 4.85588566,23.9932475 C5.00364966,23.9998227 5.08579918,23.938184 5.11045472,23.8494427 L6.1644,19.9949695 C6.17093228,19.9700763 6.17257479,19.9441928 6.16924,19.9186983 L10.9428,19.9186983 C10.9413965,19.9238357 10.9397915,21.216473 10.9379849,23.7966102 C10.9379849,23.9089393 11.0309069,24 11.1455321,24 C11.2601572,24 11.3530792,23.9089393 11.3530792,23.7966102 L11.3530792,19.9421329 C11.3523447,19.9368644 12.9575339,19.9290528 16.1686468,19.9186983 C16.141348,19.9652738 16.1339784,20.0205471 16.1481494,20.0724325 L17.1810204,23.8494468 C17.2056758,23.9381807 17.2878162,23.9998159 17.3816604,24 C17.546301,23.9639523 17.6119433,23.8523583 17.582317,23.7437776 L16.5494626,19.9667797 C16.5455421,19.9554128 18.0743124,19.9393911 21.1357736,19.9187146 C21.4794935,19.9183469 21.7580399,19.64538 21.7584151,19.3085451 L21.7584151,2.25992949 C21.7580399,1.9230946 21.4794935,1.65012767 21.1357736,1.64976 L11.3530792,1.64976 Z M0.622641509,2.05653966 L21.1357736,2.05653966 C21.250304,2.05676346 21.3430924,2.14769322 21.3433208,2.25992949 L21.3433208,5.34692746 L0.41509434,5.34692746 L0.41509434,2.25992949 C0.415322716,2.14769322 0.508111103,2.05676346 0.622641509,2.05653966 Z M0.620973195,19.5119186 C0.507363411,19.5116948 0.41532088,19.4207651 0.41509434,19.3085288 L0.41509434,5.75370712 L21.1750946,5.75370712 L21.1750946,19.3085288 C21.174868,19.4207651 21.0828255,19.5116948 20.9692157,19.5119186 L0.620973195,19.5119186 Z" id="Shape"></path>
            <path d="M18.4575185,13.5881898 L15.902094,12.4369708 L14.4975019,10.0499186 C14.4697702,10.003329 14.4245117,9.9692447 14.3714336,9.95497627 C14.3181577,9.94107207 14.2614262,9.94850367 14.2137475,9.97563254 C13.0599912,10.6281963 12.4638738,11.9327057 12.735407,13.2107483 C13.0069403,14.4887909 14.0848049,15.451751 15.4084555,15.5988396 C16.7321062,15.7459282 18.0026276,15.0439287 18.559283,13.8579173 C18.5823044,13.8089269 18.5845154,13.7529792 18.5654291,13.7023909 C18.5463428,13.6518025 18.5075239,13.6107208 18.4575185,13.5881898 Z M15.7553498,15.2113342 C14.5850637,15.2113625 13.5511456,14.4645698 13.2048119,13.3690964 C12.8584781,12.273623 13.2804531,11.0848049 14.2457679,10.4364407 L15.5753691,12.6963702 C15.5969118,12.7328482 15.6294932,12.7618614 15.6686034,12.7793939 L18.0882298,13.8694373 C17.6148683,14.6966907 16.7231714,15.2096041 15.7553498,15.2113342 Z" id="Shape"></path>
            <path d="M16.4708189,9.65307254 C16.3593276,9.62718405 16.2475303,9.69476842 16.2211126,9.80402644 C16.194695,9.91328446 16.2636608,10.0228424 16.3751521,10.0487308 C17.2818221,10.2631092 18.0099178,10.9233825 18.2981887,11.7926359 C18.3256195,11.8767675 18.4054765,11.933813 18.4956034,11.9336583 C18.517232,11.933667 18.5387253,11.9303156 18.559283,11.9237288 C18.6116778,11.9072401 18.6552263,11.8710021 18.6803222,11.8230085 C18.7054181,11.7750148 18.7099994,11.719209 18.6930555,11.667901 C18.3600477,10.6634121 17.5185877,9.90048816 16.4708189,9.65307254 Z" id="Shape"></path>
            <path d="M4.74481057,13.1130834 L3.42411321,13.1130834 C3.22045462,13.1132471 3.05539841,13.2749971 3.05523132,13.4745763 L3.05523132,15.2570197 C3.05557232,15.4564642 3.22059172,15.6180016 3.42411321,15.618118 L4.74479396,15.618118 C4.94831545,15.6180016 5.11333485,15.4564642 5.11367585,15.2570197 L5.11367585,13.4745763 C5.11350877,13.2750035 4.94846267,13.1132561 4.74481057,13.1130834 Z M4.69859811,15.2113342 L3.47033396,15.2113342 L3.47033396,13.5198631 L4.69859811,13.5198631 L4.69859811,15.2113342 Z" id="Shape"></path>
            <path d="M7.35739358,11.0060908 L6.03671698,11.0060908 C5.83305839,11.0062546 5.66800218,11.1680046 5.66783509,11.3675837 L5.66783509,15.2570156 C5.6681761,15.4564601 5.83319549,15.6179975 6.03671698,15.6181139 L7.35739774,15.6181139 C7.56091922,15.6179975 7.72593862,15.4564601 7.72627962,15.2570156 L7.72627962,11.3675837 C7.72611253,11.168003 7.5610538,11.0062523 7.35739358,11.0060908 Z M7.31118113,15.2113342 L6.08291698,15.2113342 L6.08291698,11.4128705 L7.31118113,11.4128705 L7.31118113,15.2113342 Z" id="Shape"></path>
            <path d="M9.96997245,8.89911864 L8.6492917,8.89911864 C8.44563311,8.89928239 8.2805769,9.06103238 8.28040981,9.26061153 L8.28040981,15.2570197 C8.28075081,15.4564642 8.44577021,15.6180016 8.6492917,15.618118 L9.96997245,15.618118 C10.1734939,15.6180016 10.3385133,15.4564642 10.3388543,15.2570197 L10.3388543,9.26059525 C10.3386781,9.06102247 10.1736246,8.89928237 9.96997245,8.89911864 Z M9.92376,15.2113342 L8.69549585,15.2113342 L8.69549585,9.30589831 L9.92376,9.30589831 L9.92376,15.2113342 Z" id="Shape"></path>
        </g>
    </g>
</svg>