<?xml version="1.0" encoding="utf-8"?>
<!-- Generator: Adobe Illustrator 22.0.1, SVG Export Plug-In . SVG Version: 6.00 Build 0)  -->
<svg version="1.1" id="Warstwa_1" xmlns="http://www.w3.org/2000/svg" xmlns:xlink="http://www.w3.org/1999/xlink" x="0px" y="0px"
	 viewBox="0 0 24 24" style="enable-background:new 0 0 24 24;" xml:space="preserve">
<style type="text/css">
	.st0{fill:#4F4F4F;}
	.st1{fill:#FF4070;}
</style>
<title>icon/dilute</title>
<desc>Created with Sketch.</desc>
<g id="icon_x2F_dilute">
	<g id="Dilute-icon" transform="translate(2.000000, 2.000000)">
		<g id="Oval-3">
			<path class="st0" d="M9.9,14.9c-1.6,0-9.5-0.1-9.5-2.1c0-2,7.9-2.1,9.5-2.1c1.6,0,9.5,0.1,9.5,2.1C19.4,14.8,11.5,14.9,9.9,14.9z
				 M1.4,12.8c0.6,0.4,3.5,1.1,8.4,1.1c5,0,7.8-0.7,8.4-1.1c-0.6-0.4-3.5-1.1-8.4-1.1C4.9,11.8,2.1,12.4,1.4,12.8z"/>
		</g>
		<g id="Oval-4">
			<path class="st1" d="M8.8,6.8L8.8,6.8C8.6,7.1,8.5,7.4,8.5,7.7c0,0.8,0.6,1.5,1.4,1.5c0.8,0,1.4-0.7,1.4-1.5
				c0-0.3-0.1-0.6-0.3-0.9l0,0L10,4.4L8.8,6.8z M10,3.8l1.4,2.9c0.2,0.3,0.3,0.6,0.3,1c0,1-0.7,1.7-1.7,1.7C9,9.4,8.3,8.7,8.3,7.7
				c0-0.4,0.1-0.7,0.3-1L10,3.8z"/>
		</g>
		<g id="Oval-4_1_">
			<path class="st1" d="M10,3.8l1.4,2.9c0.2,0.3,0.3,0.6,0.3,1c0,1-0.7,1.7-1.7,1.7C9,9.4,8.3,8.7,8.3,7.7c0-0.4,0.1-0.7,0.3-1
				L10,3.8z"/>
		</g>
		<g id="Rectangle-9">
			<path class="st0" d="M10,20.7c-5.5,0-10-4.5-10-10v-9h1v9c0,5,4,9,9,9s9-4,9-9v-9h1v9C20,16.2,15.5,20.7,10,20.7z"/>
		</g>
		<g id="Oval-3_1_">
			<path class="st0" d="M10,3.5c-2.5,0-10.5-0.1-10.5-2s8-2,10.5-2c2.5,0,10.5,0.1,10.5,2S12.5,3.5,10,3.5z M0.7,1.5
				c0.9,0.4,4.3,1,9.3,1c5,0,8.5-0.6,9.3-1c-0.9-0.4-4.3-1-9.3-1S1.5,1.1,0.7,1.5z"/>
		</g>
	</g>
</g>
</svg>
