<?xml version="1.0" encoding="utf-8"?>
<!-- Generator: Adobe Illustrator 22.0.1, SVG Export Plug-In . SVG Version: 6.00 Build 0)  -->
<svg version="1.1" id="Warstwa_1" xmlns="http://www.w3.org/2000/svg" xmlns:xlink="http://www.w3.org/1999/xlink" x="0px" y="0px"
	 viewBox="0 0 22.2 22.2" style="enable-background:new 0 0 22.2 22.2;" xml:space="preserve">
<style type="text/css">
	.st0{fill:#3E3E3E;}
</style>
<title>010F2EE1-E8F5-494E-A751-9539667FF773-548-00000AB3BEE9422F</title>
<desc>Created with sketchtool.</desc>
<g>
	<path class="st0" d="M11.1,0C5,0,0,5,0,11.1c0,6.1,5,11,11.1,11c6.1,0,11.1-4.9,11.1-11C22.2,5,17.2,0,11.1,0z M11.1,21.2
		C5.5,21.2,1,16.7,1,11.1C1,5.5,5.5,1,11.1,1c5.5,0,10.1,4.5,10.1,10.1C21.2,16.7,16.7,21.2,11.1,21.2z"/>
	<path class="st0" d="M10.4,14.5c-0.2,0-0.5,0.1-0.6,0.2c-0.1,0.1-0.2,0.3-0.2,0.6c0,0.2,0,0.4,0.2,0.6c0.2,0.1,0.3,0.2,0.6,0.2
		c0.3,0,0.4,0,0.6-0.2c0.1-0.1,0.2-0.3,0.2-0.6c0-0.2,0-0.4-0.2-0.6C10.8,14.6,10.6,14.5,10.4,14.5z"/>
	<path class="st0" d="M10.7,5.8C9.9,5.8,9.1,6,8.6,6.5C8,6.9,7.8,7.6,7.7,8.5h1.1C8.9,8,9,7.6,9.3,7.3c0.4-0.2,0.8-0.4,1.3-0.4
		s0.9,0.1,1.3,0.4c0.3,0.3,0.4,0.6,0.4,1.1c0,0.4-0.1,0.8-0.3,1c-0.2,0.2-0.4,0.5-0.8,0.8c-0.3,0.3-0.5,0.5-0.7,0.7
		c-0.1,0.2-0.3,0.3-0.4,0.7C10,12,9.9,12.3,9.9,12.7H11c0-0.3,0-0.6,0.2-0.9c0.1-0.2,0.2-0.5,0.4-0.6c0.2-0.1,0.4-0.3,0.7-0.6
		c0.3-0.3,0.5-0.5,0.7-0.7c0.2-0.2,0.3-0.4,0.4-0.7c0.1-0.3,0.2-0.6,0.2-1c0-0.8-0.3-1.4-0.8-1.8C12.3,6,11.6,5.8,10.7,5.8z"/>
</g>
</svg>
