<?xml version="1.0" encoding="utf-8"?>
<!-- Generator: Adobe Illustrator 22.0.1, SVG Export Plug-In . SVG Version: 6.00 Build 0)  -->
<svg version="1.1" id="Warstwa_1" xmlns="http://www.w3.org/2000/svg" xmlns:xlink="http://www.w3.org/1999/xlink" x="0px" y="0px"
	 viewBox="0 0 24 24" style="enable-background:new 0 0 24 24;" xml:space="preserve">
<style type="text/css">
	.st0{fill:#4F4F4F;}
	.st1{fill:#FF4070;}
</style>
<title>icon/increase-revenue</title>
<desc>Created with Sketch.</desc>
<g id="icon_x2F_increase-revenue">
	<g id="Group-3" transform="translate(1.000000, 1.000000)">
		<g id="Path-2">
			<path class="st0" d="M7.2,21.8l-0.7-0.7L8.6,19l5.6-5.1l2.1,2.1l1.8-1.5L17,13.5l6.2-3.1L20,16.6l-1.2-1.2l-2.6,2.1l-2.1-2.1
				l-4.9,4.4L7.2,21.8z M19.6,14.7l0.2,0.2l1.1-2.2l-2.2,1.1L19.6,14.7L19.6,14.7z"/>
		</g>
		<g id="Oval">
			<path class="st0" d="M7.9,15.7C3.5,15.7,0,12.2,0,7.9S3.5,0,7.9,0s7.9,3.5,7.9,7.9S12.2,15.7,7.9,15.7z M7.9,1C4.1,1,1,4.1,1,7.9
				c0,3.8,3.1,6.9,6.9,6.9s6.9-3.1,6.9-6.9C14.7,4.1,11.6,1,7.9,1z"/>
		</g>
		<g id="_x20AC_">
			<path class="st1" d="M9.2,9.7C9.5,9.5,9.8,9.3,10,9l1.1,1.2c-0.4,0.4-0.9,0.7-1.4,1c-0.5,0.2-1.1,0.4-1.6,0.4
				c-0.6,0-1.2-0.1-1.7-0.4c-0.5-0.2-1-0.6-1.3-1C4.8,9.9,4.5,9.4,4.4,8.8h-1V8.1h0.8c0-0.1,0-0.2,0-0.3c0-0.1,0-0.2,0-0.2H3.4V6.9
				h0.9c0.1-0.5,0.4-1,0.7-1.5c0.4-0.4,0.8-0.8,1.3-1s1.1-0.4,1.7-0.4c0.5,0,1.1,0.1,1.6,0.3c0.5,0.2,1,0.5,1.3,0.9L10,6.7
				C9.8,6.4,9.5,6.2,9.2,6s-0.7-0.3-1-0.3c-0.4,0-0.8,0.1-1.1,0.3C6.8,6.3,6.6,6.6,6.4,6.9h2.3v0.7H6.2c0,0,0,0.1,0,0.2
				c0,0.1,0,0.2,0,0.3h2.5v0.7H6.5c0.2,0.3,0.4,0.6,0.7,0.8c0.3,0.2,0.7,0.3,1,0.3C8.5,9.9,8.8,9.8,9.2,9.7z"/>
		</g>
		<g id="_x2B_">
			<polygon class="st0" points="17.7,1.1 17.7,1.7 16.8,1.7 16.8,2.6 16.2,2.6 16.2,1.7 15.4,1.7 15.4,1.1 16.2,1.1 16.2,0.3 
				16.8,0.3 16.8,1.1 			"/>
		</g>
		<g id="_x2B__1_">
			<polygon class="st0" points="21.9,7.4 21.9,8 21,8 21,8.9 20.4,8.9 20.4,8 19.5,8 19.5,7.4 20.4,7.4 20.4,6.5 21,6.5 21,7.4 			
				"/>
		</g>
		<g id="_x2B__2_">
			<polygon class="st0" points="4.6,18.4 4.6,19 3.7,19 3.7,19.9 3.1,19.9 3.1,19 2.3,19 2.3,18.4 3.1,18.4 3.1,17.5 3.7,17.5 
				3.7,18.4 			"/>
		</g>
	</g>
</g>
</svg>
