<?xml version="1.0" encoding="UTF-8"?>
<svg width="14px" height="21px" viewBox="0 0 14 21" version="1.1" xmlns="http://www.w3.org/2000/svg" xmlns:xlink="http://www.w3.org/1999/xlink">
    <!-- Generator: sketchtool 50.2 (55047) - http://www.bohemiancoding.com/sketch -->
    <title>C5D20D2E-7B0D-475B-8116-E8C0AF14CB34-548-00000AB3BEDA3E4D</title>
    <desc>Created with sketchtool.</desc>
    <defs></defs>
    <g id="(DONE)-Vendor-Backend" stroke="none" stroke-width="1" fill="none" fill-rule="evenodd">
        <g id="Reservations/last-24-hours" transform="translate(-1313.000000, -278.000000)" fill="#3E3E3E" fill-rule="nonzero">
            <g id="component/vendor-backend/screen/reservations/last-24-hours">
                <g id="component/vendor-backend/table-row/reservation/without-voucher-copy-11" transform="translate(294.000000, 251.000000)">
                    <g id="component/vendor-backend/status-pill/upcoming" transform="translate(900.000000, 20.000000)">
                        <g id="icon/checkbox/checked/black" transform="translate(116.000000, 7.000000)">
                            <g id="Group" transform="translate(3.500000, 0.875000)">
                                <path d="M12.8672298,2.60251731 C12.8881007,2.56841045 12.8945409,2.52740004 12.8851289,2.4885376 C12.8757169,2.44967515 12.8512266,2.41615575 12.8166885,2.39514906 L9.50915726,0.372129937 C9.4750504,0.351258974 9.43403998,0.344818773 9.39517754,0.354230771 C9.3563151,0.363642769 9.32279569,0.38813316 9.30179325,0.422664254 L0.634119682,14.5953403 L0.372557903,19.0289739 L4.19947183,16.7683496 L12.8672298,2.60251731 Z M4.23699381,16.7461843 L4.17672664,16.8055221 L4.19947191,16.7683492 L4.23699381,16.7461843 Z M4.4150063,17.0475341 L0.267506215,19.497534 C0.14685631,19.568804 -0.00444873708,19.4764376 0.00380374235,19.336553 L0.287303748,14.5310532 C0.288995429,14.5023782 0.297719704,14.4745604 0.312706599,14.4500551 L9.00298255,0.240423274 C9.0720822,0.126809966 9.18355373,0.0453651779 9.31279395,0.0140648145 C9.44203417,-0.0172355488 9.57841764,0.00418186077 9.69181146,0.0735707825 L12.9989369,2.09634223 C13.1125503,2.16544188 13.193995,2.2769134 13.2252954,2.40615361 C13.2565958,2.53539382 13.2351784,2.67177728 13.1657737,2.7851969 L4.47527347,16.9881963 C4.46033802,17.0126055 4.43964466,17.0329798 4.4150063,17.0475341 Z" id="Shape"></path>
                                <path d="M7.67167515,2.73464081 C7.58922958,2.68420353 7.56328175,2.57648071 7.61371903,2.49403515 C7.66415632,2.41158959 7.77187915,2.38564176 7.85432472,2.43607904 L11.7218249,4.80207896 C11.8042704,4.85251624 11.8302183,4.96023906 11.779781,5.04268462 C11.7293437,5.12513018 11.6216209,5.15107801 11.5391753,5.10064073 L7.67167515,2.73464081 Z" id="Shape"></path>
                                <path d="M0.185321221,17.7462293 C0.102826386,17.6958726 0.0767732387,17.5881752 0.127129887,17.5056804 C0.177486535,17.4231856 0.285183942,17.3971324 0.367678776,17.4474891 L1.77817877,18.308489 C1.8606736,18.3588457 1.88672675,18.4665431 1.8363701,18.5490379 C1.78601345,18.6315328 1.67831605,18.6575859 1.59582121,18.6072293 L0.185321221,17.7462293 Z" id="Shape"></path>
                            </g>
                        </g>
                    </g>
                </g>
            </g>
        </g>
    </g>
</svg>