<?xml version="1.0" encoding="utf-8"?>
<!-- Generator: Adobe Illustrator 22.0.1, SVG Export Plug-In . SVG Version: 6.00 Build 0)  -->
<svg version="1.1" id="Warstwa_1" xmlns="http://www.w3.org/2000/svg" xmlns:xlink="http://www.w3.org/1999/xlink" x="0px" y="0px"
	 viewBox="0 0 48 48" style="enable-background:new 0 0 48 48;" xml:space="preserve">
<style type="text/css">
	.st0{fill:#4A4A4A;}
	.st1{fill:#4F4F4F;}
	.st2{fill:#FF4070;}
</style>
<title>icon/strength+love</title>
<desc>Created with Sketch.</desc>
<g id="icon_x2F_strength_x2B_love">
	<g id="Group_1_">
		<g id="icon_x2F_strength">
			<g id="Group">
				<g id="Path-13">
					<path class="st0" d="M31,48.1c-7.3-0.9-12.6-1.9-15.8-2.9C12,44.1,7,41.7,0.5,38.1l-0.3-0.2l0-0.3c0.3-5.3,0.9-9.3,1.7-11.9
						c0.8-2.6,3.1-7.7,6.8-15.3C8.9,10,9,9.8,9.1,9.7c0.1-0.1,8.2-6.2,13-9.8l0.2-0.1c0.6-0.1,1-0.1,1.3,0.1
						c0.3,0.2,5.7,4.8,6.3,5.6c0.4,0.5,0.5,1.4-1,2.7L26,11c-1,0.5-1.7,0.6-2.3,0.4c-0.5-0.2-1-0.6-1.7-1.1c-1-1.2-1.1-1.6-1.1-1.9
						c0-0.4,0.3-0.9,1.1-1.7l0.7,0.7c-0.7,0.7-0.8,1-0.8,1c0,0,0,0,0,0c0,0,0.1,0.3,0.8,1.2c0.5,0.4,0.9,0.7,1.3,0.9
						c0.2,0.1,0.6,0.1,1.4-0.3l2.6-2.7c0.4-0.4,1.1-1,0.9-1.4c-0.5-0.7-5.5-5-6-5.4c0,0-0.1,0-0.4,0.1c-8,6.1-12.3,9.3-12.8,9.7
						c0,0.1-0.1,0.1-0.1,0.3C6,18.3,3.7,23.4,2.9,26c-0.8,2.5-1.3,6.3-1.7,11.4c6.3,3.5,11.1,5.8,14.3,6.9c3.2,1,8.4,2,15.6,2.9
						c4.8-0.2,8.1-0.4,9.8-0.8c1.7-0.3,4-1.2,6.8-2.6l0.4,0.9c-2.9,1.4-5.3,2.3-7,2.7C39.3,47.7,35.9,47.9,31,48.1z"/>
				</g>
				<g id="Path-14">
					<path class="st0" d="M38.9,26.7L38.3,26c1.3-1.1,2.6-1.8,3.8-2.1c1.2-0.3,3.1-0.3,5.9,0l-0.1,1c-2.6-0.2-4.5-0.2-5.6,0
						C41.2,25.1,40.1,25.7,38.9,26.7z"/>
				</g>
				<g id="Path-15">
					<path class="st1" d="M23.2,31.6l-1-0.2c0.8-3.8,3.8-6.2,8.8-7c5-0.8,8.6,0.5,10.9,4L41,28.9c-2-3.1-5.2-4.3-9.9-3.5
						C26.5,26.1,23.9,28.2,23.2,31.6z"/>
				</g>
				<g id="Path-16">
					<path class="st0" d="M22.7,29.7c-1-0.5-1.8-0.9-2.4-1c-0.6-0.1-1.4-0.1-2.4,0l-0.1-1c1.1-0.2,2-0.2,2.7,0
						c0.7,0.2,1.6,0.5,2.7,1.1L22.7,29.7z"/>
				</g>
				<g id="Path-17">
					<path class="st0" d="M14.9,33.4L14,32.8c1.8-3,2.9-5.3,3.1-7c0.1-0.5,0-1.3-0.2-2.3c-0.2-1.3-0.5-3-0.5-5.2
						c0-0.9,0.1-2.2,0.4-4.1c0.1-0.4,0.2-1,0.3-1.8l1,0.2c-0.1,0.8-0.2,1.4-0.3,1.7c-0.3,1.8-0.4,3.1-0.4,3.9c0,2.2,0.3,3.8,0.5,5.1
						c0.2,1.1,0.3,2,0.2,2.6C17.9,27.8,16.8,30.2,14.9,33.4z"/>
				</g>
				<g id="Path-18">
					<path class="st0" d="M22.7,15.4c-1.2,0-2.8-0.1-5.3-0.2l0.1-1c6,0.4,7.2,0.2,7.4,0c4.4-2.1,5.6-3.3,5.6-3.6
						c0-0.6-0.5-1.4-1.4-2.1l0.6-0.8c1.2,1,1.8,1.9,1.8,2.9c0,0.4,0,1.5-6.2,4.5C25,15.3,24.4,15.4,22.7,15.4z"/>
				</g>
			</g>
		</g>
		<g id="Path-19">
			<path class="st2" d="M33.4,41.3c-5-4.2-7.7-6.8-8.2-7.9c-0.6-1.7,2.4-3.2,4-3.2c1.1,0,2.4,1.1,4.1,3.2c1.7-2.1,2.9-3.2,3.6-3.2
				c1.1,0,4.3-0.7,3,3.2C39.2,36,37,38.7,33.4,41.3z"/>
		</g>
	</g>
</g>
</svg>
