<?xml version="1.0" encoding="utf-8"?>
<!-- Generator: Adobe Illustrator 22.0.1, SVG Export Plug-In . SVG Version: 6.00 Build 0)  -->
<svg version="1.1" id="Warstwa_1" xmlns="http://www.w3.org/2000/svg" xmlns:xlink="http://www.w3.org/1999/xlink" x="0px" y="0px"
	 viewBox="0 0 25 25" style="enable-background:new 0 0 25 25;" xml:space="preserve">
<style type="text/css">
	.st0{fill:#FFFFFF;}
</style>
<title>0CFA51D5-5742-4F5F-AAA9-14DF81A5F1D5-540-00002E4506C2B810</title>
<desc>Created with sketchtool.</desc>
<g id="_x28_DONE_x29_-Restaurant-Landing-Page">
	<g id="New-version-Step-1---web" transform="translate(-1060.000000, -36.000000)">
		<g id="component_x2F_restaurant-landing-page_x2F_to-part">
			<g id="Header_x2F_web_x2F_not-logged-in_x2F_white-on-black-bg" transform="translate(48.000000, 32.000000)">
				<g id="icon_x2F_user_x2F_black" transform="translate(1012.000000, 4.000000)">
					<g id="Shape">
						<path class="st0" d="M12.5,13.1C8.9,13.1,6,10.2,6,6.5S8.9,0,12.5,0S19,2.9,19,6.5S16.1,13.1,12.5,13.1z M12.5,1.2
							c-3,0-5.4,2.4-5.4,5.4c0,3,2.4,5.4,5.4,5.4c3,0,5.4-2.4,5.4-5.4C17.9,3.6,15.5,1.2,12.5,1.2z"/>
					</g>
					<g id="Shape_1_">
						<path class="st0" d="M1.2,22c0-2.6,2.6-5.4,7.1-5.4h8.3c4.5,0,7.1,2.8,7.1,5.4v2.4c0,0.3,0.3,0.6,0.6,0.6s0.6-0.3,0.6-0.6V22
							c0-3.2-3.1-6.5-8.3-6.5H8.3C3.1,15.5,0,18.8,0,22v2.4C0,24.7,0.3,25,0.6,25s0.6-0.3,0.6-0.6V22z"/>
					</g>
				</g>
			</g>
		</g>
	</g>
</g>
</svg>
