<?xml version="1.0" encoding="UTF-8"?>
<svg width="246px" height="30px" viewBox="0 0 246 30" version="1.1" xmlns="http://www.w3.org/2000/svg" xmlns:xlink="http://www.w3.org/1999/xlink">
    <!-- Generator: sketchtool 50.2 (55047) - http://www.bohemiancoding.com/sketch -->
    <title>3975CCB0-D805-4A21-AAD4-EC982287E6F5</title>
    <desc>Created with sketchtool.</desc>
    <defs></defs>
    <g id="(DONE)-Coming-soon-page" stroke="none" stroke-width="1" fill="none" fill-rule="evenodd">
        <g id="coming-soon-page-2" transform="translate(-48.000000, -32.000000)">
            <g id="Header/web/not-logged-in/white-on-black-bg" transform="translate(48.000000, 32.000000)">
                <g id="Logo/with-type/black-on-white">
                    <g id="Logo/no-type/black" fill="#4F4F4F" stroke-width="1">
                        <g id="Group" transform="translate(0.000000, 1.115385)">
                            <path d="M6.37121212,13.7812815 C2.85248883,13.7812815 0,10.7074789 0,6.91575123 C0,3.12402354 2.85248883,0.0502209237 6.37121212,0.0502209237 C9.88993541,0.0502209237 12.7424242,3.12402354 12.7424242,6.91575123 C12.7424242,10.7074789 9.88993541,13.7812815 6.37121212,13.7812815 Z M6.37121212,12.513799 C9.1619237,12.513799 11.4242424,10.0074676 11.4242424,6.91575123 C11.4242424,3.82403481 9.1619237,1.31770344 6.37121212,1.31770344 C3.58050054,1.31770344 1.31818182,3.82403481 1.31818182,6.91575123 C1.31818182,10.0074676 3.58050054,12.513799 6.37121212,12.513799 Z" id="Oval-Copy"></path>
                            <path d="M22.1893939,27.301095 C18.6706706,27.301095 15.8181818,24.2272924 15.8181818,20.4355647 C15.8181818,16.6438371 18.6706706,13.5700344 22.1893939,13.5700344 C25.7081172,13.5700344 28.5606061,16.6438371 28.5606061,20.4355647 C28.5606061,24.2272924 25.7081172,27.301095 22.1893939,27.301095 Z M22.1893939,26.0336125 C24.9801055,26.0336125 27.2424242,23.5272812 27.2424242,20.4355647 C27.2424242,17.3438483 24.9801055,14.837517 22.1893939,14.837517 C19.3986824,14.837517 17.1363636,17.3438483 17.1363636,20.4355647 C17.1363636,23.5272812 19.3986824,26.0336125 22.1893939,26.0336125 Z" id="Oval-Copy"></path>
                            <path d="M13.7166093,10.4973865 C13.0949368,9.77300177 12.6637097,9.14194537 12.4229281,8.60421731 C12.2170238,8.14437919 11.9296912,7.75509393 11.7792069,6.50732068 C11.7179001,5.99898211 11.6872467,5.49064353 11.6872467,4.98230496 L11.6872467,-2.07089278 L12.4229281,-2.07089278 L12.4229281,4.98230496 L12.4230386,4.98230496 C12.4272112,5.16213764 12.5490805,5.30637022 12.6988087,5.30637022 C12.8485369,5.30637022 12.9704061,5.16213764 12.9745788,4.98230496 L12.9746892,4.98230496 L12.9746892,-2.07089278 L13.7103707,-2.07089278 L13.7103707,4.98230496 L13.7104811,4.98230496 C13.7146537,5.16213764 13.836523,5.30637022 13.9862512,5.30637022 C14.1359794,5.30637022 14.2578487,5.16213764 14.2620213,4.98230496 L14.2621317,4.98230496 L14.2621317,-2.07089278 L14.9978132,-2.07089278 L14.9978132,4.98230496 L14.9979236,4.98230496 C15.0020963,5.16213764 15.1239655,5.30637022 15.2736937,5.30637022 C15.4234219,5.30637022 15.5452912,5.16213764 15.5494638,4.98230496 L15.5495743,4.98230496 L15.5495743,-2.07089278 L16.2852557,-2.07089278 L16.2852557,4.98230496 C16.2852557,5.49064353 16.2546023,5.99898211 16.1932955,6.50732068 C16.1812368,6.60730834 16.1349339,7.11807554 16.0263142,7.58890038 C15.9114294,8.08688175 15.7337036,8.5449231 15.7127363,8.60421731 C15.5527601,9.05662011 15.1521803,9.66000617 14.5109969,10.4143755 L14.8511128,30.3068108 L13.3779128,30.3068108 L13.7166093,10.4973865 Z" id="Path-4" transform="translate(13.986251, 14.117959) rotate(38.000000) translate(-13.986251, -14.117959) "></path>
                        </g>
                    </g>
                    <path d="M57.7917998,2.312033 C60.0374063,3.4813429 61.7847011,5.12233842 63.0337367,7.2350688 C64.2827722,9.34779917 64.9072806,11.7727521 64.9072806,14.5100002 C64.9072806,17.2472484 64.2761285,19.678845 63.0138053,21.804863 C61.7514822,23.930881 59.9709688,25.5785202 57.6722118,26.7478301 C55.3734549,27.91714 52.7359034,28.5017862 49.7594782,28.5017862 L38,28.5017862 L38,0.558076932 L50.0385167,0.558076932 C52.9617914,0.558076932 55.5461933,1.14272311 57.7917998,2.312033 Z M53.9849178,21.6055498 C55.0745021,20.9411692 55.9248965,19.9977628 56.5361267,18.7753025 C57.1473568,17.5528421 57.4529673,16.1576638 57.4529673,14.5897255 C57.4529673,12.995212 57.1274257,11.5867462 56.4763327,10.3642859 C55.8252397,9.14182553 54.9283393,8.1917755 53.7856046,7.51410726 C52.64287,6.83643903 51.3407035,6.49760999 49.8790661,6.49760999 L45.2948628,6.49760999 L45.2948628,22.6021157 L50.2378299,22.6021157 C51.6463168,22.6021157 52.8953336,22.2699304 53.9849178,21.6055498 Z M68.5347807,0.558076932 L75.8296435,0.558076932 L75.8296435,28.5017862 L68.5347807,28.5017862 L68.5347807,0.558076932 Z M95.7410311,6.8165111 C94.0535044,6.25843137 92.6383949,5.9793957 91.4956602,5.9793957 C90.5921025,5.9793957 89.8812259,6.14548836 89.3630091,6.47767867 C88.8447922,6.80986898 88.5856876,7.29485956 88.5856876,7.93266496 C88.5856876,8.54389513 88.8115736,9.05546054 89.2633525,9.46737652 C89.7151313,9.87929251 90.2732026,10.2114778 90.9375833,10.4639425 C91.6019639,10.7164071 92.5852324,11.0419487 93.8874185,11.4405771 C95.8274099,11.9986568 97.4285432,12.5567282 98.6908663,13.1148079 C99.9531895,13.6728876 101.036114,14.5299258 101.939671,15.685948 C102.843229,16.8419703 103.295001,18.3500917 103.295001,20.2103575 C103.295001,22.0706232 102.803367,23.6584691 101.820083,24.9739427 C100.8368,26.2894163 99.4881277,27.2793286 97.7740257,27.9437092 C96.0599237,28.6080899 94.1531799,28.9402752 92.0537371,28.9402752 C89.7416926,28.9402752 87.4363264,28.5350091 85.1375694,27.7244647 C82.8388125,26.9139204 80.8523442,25.8044214 79.178105,24.3959345 L82.0083523,18.6955772 C83.4168393,19.9446128 85.0844096,20.9677436 87.0111134,21.7650003 C88.9378172,22.5622571 90.6452498,22.9608795 92.1334624,22.9608795 C93.2230466,22.9608795 94.0800848,22.7615683 94.7046025,22.3629399 C95.3291203,21.9643115 95.6413745,21.3796654 95.6413745,20.6089838 C95.6413745,19.9711784 95.4088448,19.4396819 94.9437784,19.0144783 C94.4787119,18.5892747 93.8940658,18.2504457 93.1898223,17.9979811 C92.4855788,17.7455164 91.4956666,17.4465496 90.2200558,17.1010717 C88.3066396,16.5695672 86.7254374,16.031427 85.4764018,15.4866349 C84.2273663,14.9418427 83.1577295,14.1180231 82.2674595,13.0151513 C81.3771895,11.9122795 80.9320611,10.4440203 80.9320611,8.61032981 C80.9320611,6.88294019 81.3904769,5.36817509 82.3073221,4.06598908 C83.2241674,2.76380306 84.5263339,1.76060337 86.2138607,1.05635991 C87.9013874,0.352116448 89.8612809,0 92.0935998,0 C94.1133168,0 96.1064288,0.285679382 98.0729955,0.857046717 C100.039562,1.42841405 101.766926,2.19244031 103.255138,3.1491484 L100.504616,8.96909355 C99.0164038,8.09211113 97.4285579,7.37459082 95.7410311,6.8165111 Z M123.98371,7.31479407 C122.734675,6.63712584 121.498945,6.2982968 120.276485,6.2982968 C118.867998,6.2982968 117.585763,6.65041325 116.42974,7.35465671 C115.273718,8.05890017 114.36353,9.02888133 113.69915,10.2646293 C113.034769,11.5003772 112.702584,12.8756245 112.702584,14.3904123 C112.702584,15.9052001 113.034769,17.2804474 113.69915,18.5161953 C114.36353,19.7519433 115.273718,20.7219245 116.42974,21.4261679 C117.585763,22.1304114 118.867998,22.4825278 120.276485,22.4825278 C121.419219,22.4825278 122.615087,22.1902047 123.864122,21.6055498 C125.113158,21.0208948 126.229301,20.2236501 127.212584,19.2137915 L131.477886,23.7979949 C129.963098,25.3925084 128.162654,26.6614563 126.076499,27.6048768 C123.990343,28.5482973 121.924151,29.0200005 119.877858,29.0200005 C117.114035,29.0200005 114.616001,28.3822046 112.383682,27.1065938 C110.151364,25.830983 108.397425,24.0903319 107.121814,21.8845883 C105.846203,19.6788446 105.208408,17.2073858 105.208408,14.4701376 C105.208408,11.7594647 105.859491,9.31458064 107.161677,7.1354122 C108.463863,4.95624376 110.25102,3.24216747 112.523202,1.9931319 C114.795383,0.744096331 117.339923,0.119587914 120.156897,0.119587914 C122.229764,0.119587914 124.276026,0.55142884 126.295743,1.41512365 C128.31546,2.27881846 130.029537,3.45475452 131.438023,4.94296711 L127.212584,10.0453848 C126.309026,8.9026501 125.232746,7.99246231 123.98371,7.31479407 Z M155.614713,1.9931319 C157.91347,3.24216747 159.720559,4.95624376 161.036032,7.1354122 C162.351506,9.31458064 163.009233,11.7594647 163.009233,14.4701376 C163.009233,17.2073858 162.351506,19.6788446 161.036032,21.8845883 C159.720559,24.0903319 157.91347,25.830983 155.614713,27.1065938 C153.315956,28.3822046 150.744842,29.0200005 147.901293,29.0200005 C145.057744,29.0200005 142.486629,28.3888483 140.187872,27.1265252 C137.889116,25.864202 136.082027,24.1235509 134.766554,21.9045196 C133.45108,19.6854883 132.793353,17.2073858 132.793353,14.4701376 C132.793353,11.7594647 133.45108,9.31458064 134.766554,7.1354122 C136.082027,4.95624376 137.889116,3.24216747 140.187872,1.9931319 C142.486629,0.744096331 145.057744,0.119587914 147.901293,0.119587914 C150.744842,0.119587914 153.315956,0.744096331 155.614713,1.9931319 Z M144.134274,7.37458803 C142.951676,8.0921191 142.014914,9.08203138 141.323958,10.3443546 C140.633002,11.6066777 140.287529,12.9952124 140.287529,14.5100002 C140.287529,16.0513633 140.639646,17.4531854 141.343889,18.7155085 C142.048132,19.9778317 142.984895,20.9743877 144.154205,21.7052064 C145.323515,22.4360251 146.599107,22.8014289 147.981018,22.8014289 C149.36293,22.8014289 150.631878,22.4360251 151.7879,21.7052064 C152.943922,20.9743877 153.85411,19.9778317 154.518491,18.7155085 C155.182871,17.4531854 155.515057,16.0513633 155.515057,14.5100002 C155.515057,12.9952124 155.182871,11.6066777 154.518491,10.3443546 C153.85411,9.08203138 152.943922,8.0921191 151.7879,7.37458803 C150.631878,6.65705696 149.36293,6.2982968 147.981018,6.2982968 C146.599107,6.2982968 145.316871,6.65705696 144.134274,7.37458803 Z" id="DISCO" fill="#4F4F4F"></path>
                    <path d="M166,1 L188.12,1 L188.12,6.84 L173.32,6.84 L173.32,12.08 L186.68,12.08 L186.68,17.88 L173.32,17.92 L173.32,23.2 L188.52,23.2 L188.52,29.04 L166,29.04 L166,1 Z M213.6,29.04 L211.68,24.08 L199.56,24.08 L197.6,29.04 L190.08,29.04 L202.12,1 L209.64,1 L221.4,29.04 L213.6,29.04 Z M201.76,18.48 L209.52,18.48 L205.68,8.48 L201.76,18.48 Z M221.48,1 L245.52,1 L245.52,7.04 L237.12,7.04 L237.12,29.04 L229.8,29.04 L229.8,7.04 L221.48,7.04 L221.48,1 Z" id="EAT" fill="#FF4070"></path>
                </g>
            </g>
        </g>
    </g>
</svg>