<?xml version="1.0" encoding="utf-8"?>
<!-- Generator: Adobe Illustrator 22.0.1, SVG Export Plug-In . SVG Version: 6.00 Build 0)  -->
<svg version="1.1" id="Warstwa_1" xmlns="http://www.w3.org/2000/svg" xmlns:xlink="http://www.w3.org/1999/xlink" x="0px" y="0px"
	 viewBox="0 0 246 30" style="enable-background:new 0 0 246 30;" xml:space="preserve">
<style type="text/css">
	.st0{fill:#FFFFFF;}
	.st1{fill:#FF4070;}
</style>
<title>3975CCB0-D805-4A21-AAD4-EC982287E6F5</title>
<desc>Created with sketchtool.</desc>
<g id="_x28_DONE_x29_-Coming-soon-page">
	<g id="coming-soon-page-2" transform="translate(-48.000000, -32.000000)">
		<g id="Header_x2F_web_x2F_not-logged-in_x2F_white-on-black-bg" transform="translate(48.000000, 32.000000)">
			<g id="Logo_x2F_with-type_x2F_black-on-white">
				<g id="Logo_x2F_no-type_x2F_black">
					<g id="Group" transform="translate(0.000000, 1.115385)">
						<path id="Oval-Copy" class="st0" d="M6.4,13.8C2.9,13.8,0,10.7,0,6.9s2.9-6.9,6.4-6.9s6.4,3.1,6.4,6.9S9.9,13.8,6.4,13.8z
							 M6.4,12.5c2.8,0,5.1-2.5,5.1-5.6S9.2,1.3,6.4,1.3S1.3,3.8,1.3,6.9S3.6,12.5,6.4,12.5z"/>
						<path id="Oval-Copy_1_" class="st0" d="M22.2,27.3c-3.5,0-6.4-3.1-6.4-6.9s2.9-6.9,6.4-6.9s6.4,3.1,6.4,6.9
							S25.7,27.3,22.2,27.3z M22.2,26c2.8,0,5.1-2.5,5.1-5.6s-2.3-5.6-5.1-5.6s-5.1,2.5-5.1,5.6S19.4,26,22.2,26z"/>
						<path id="Path-4" class="st0" d="M16,11.1c0-1,0-1.7,0.1-2.3c0.1-0.5,0.1-1,0.8-2c0.3-0.4,0.6-0.9,0.9-1.3l4.3-5.6l0.6,0.5
							L18.4,6l0,0c-0.1,0.1-0.1,0.3,0,0.4s0.3,0.1,0.4-0.1l0,0l4.3-5.6l0.6,0.5l-4.3,5.6l0,0c-0.1,0.1-0.1,0.3,0,0.4
							c0.1,0.1,0.3,0.1,0.4-0.1l0,0l4.3-5.6L24.8,2l-4.3,5.6l0,0c-0.1,0.1-0.1,0.3,0,0.4c0.1,0.1,0.3,0.1,0.4-0.1l0,0l4.3-5.6
							l0.6,0.5l-4.3,5.6c-0.3,0.4-0.7,0.8-1,1.1c-0.1,0.1-0.4,0.4-0.8,0.7c-0.4,0.3-0.8,0.6-0.9,0.6c-0.4,0.3-1.1,0.5-2.1,0.7
							l-12,15.9l-1.2-0.9L16,11.1z"/>
					</g>
				</g>
				<path id="DISCO" class="st0" d="M57.8,2.3c2.2,1.2,4,2.8,5.2,4.9c1.2,2.1,1.9,4.5,1.9,7.3s-0.6,5.2-1.9,7.3
					c-1.3,2.1-3,3.8-5.3,4.9c-2.3,1.2-4.9,1.8-7.9,1.8H38V0.6h12C53,0.6,55.5,1.1,57.8,2.3z M54,21.6c1.1-0.7,1.9-1.6,2.6-2.8
					c0.6-1.2,0.9-2.6,0.9-4.2c0-1.6-0.3-3-1-4.2s-1.5-2.2-2.7-2.9s-2.4-1-3.9-1h-4.6v16.1h4.9C51.6,22.6,52.9,22.3,54,21.6z
					 M68.5,0.6h7.3v27.9h-7.3V0.6z M95.7,6.8C94.1,6.3,92.6,6,91.5,6c-0.9,0-1.6,0.2-2.1,0.5c-0.5,0.3-0.8,0.8-0.8,1.5
					c0,0.6,0.2,1.1,0.7,1.5c0.5,0.4,1,0.7,1.7,1s1.6,0.6,2.9,1c1.9,0.6,3.5,1.1,4.8,1.7s2.3,1.4,3.2,2.6s1.4,2.7,1.4,4.5
					s-0.5,3.4-1.5,4.8s-2.3,2.3-4,3c-1.7,0.7-3.6,1-5.7,1c-2.3,0-4.6-0.4-6.9-1.2c-2.3-0.8-4.3-1.9-6-3.3l2.8-5.7
					c1.4,1.2,3.1,2.3,5,3.1c1.9,0.8,3.6,1.2,5.1,1.2c1.1,0,1.9-0.2,2.6-0.6c0.6-0.4,0.9-1,0.9-1.8c0-0.6-0.2-1.2-0.7-1.6
					s-1-0.8-1.8-1c-0.7-0.3-1.7-0.6-3-0.9c-1.9-0.5-3.5-1.1-4.7-1.6c-1.2-0.5-2.3-1.4-3.2-2.5c-0.9-1.1-1.3-2.6-1.3-4.4
					c0-1.7,0.5-3.2,1.4-4.5c0.9-1.3,2.2-2.3,3.9-3C87.9,0.4,89.9,0,92.1,0c2,0,4,0.3,6,0.9c2,0.6,3.7,1.3,5.2,2.3L100.5,9
					C99,8.1,97.4,7.4,95.7,6.8z M124,7.3c-1.2-0.7-2.5-1-3.7-1c-1.4,0-2.7,0.4-3.8,1.1s-2.1,1.7-2.7,2.9s-1,2.6-1,4.1s0.3,2.9,1,4.1
					s1.6,2.2,2.7,2.9c1.2,0.7,2.4,1.1,3.8,1.1c1.1,0,2.3-0.3,3.6-0.9c1.2-0.6,2.4-1.4,3.3-2.4l4.3,4.6c-1.5,1.6-3.3,2.9-5.4,3.8
					s-4.2,1.4-6.2,1.4c-2.8,0-5.3-0.6-7.5-1.9c-2.2-1.3-4-3-5.3-5.2c-1.3-2.2-1.9-4.7-1.9-7.4c0-2.7,0.7-5.2,2-7.3s3.1-3.9,5.4-5.1
					s4.8-1.9,7.6-1.9c2.1,0,4.1,0.4,6.1,1.3c2,0.9,3.7,2,5.1,3.5l-4.2,5.1C126.3,8.9,125.2,8,124,7.3z M155.6,2
					c2.3,1.2,4.1,3,5.4,5.1c1.3,2.2,2,4.6,2,7.3c0,2.7-0.7,5.2-2,7.4c-1.3,2.2-3.1,3.9-5.4,5.2c-2.3,1.3-4.9,1.9-7.7,1.9
					s-5.4-0.6-7.7-1.9c-2.3-1.3-4.1-3-5.4-5.2s-2-4.7-2-7.4c0-2.7,0.7-5.2,2-7.3s3.1-3.9,5.4-5.1c2.3-1.2,4.9-1.9,7.7-1.9
					S153.3,0.7,155.6,2z M144.1,7.4c-1.2,0.7-2.1,1.7-2.8,3c-0.7,1.3-1,2.7-1,4.2c0,1.5,0.4,2.9,1.1,4.2c0.7,1.3,1.6,2.3,2.8,3
					c1.2,0.7,2.4,1.1,3.8,1.1s2.7-0.4,3.8-1.1c1.2-0.7,2.1-1.7,2.7-3c0.7-1.3,1-2.7,1-4.2c0-1.5-0.3-2.9-1-4.2s-1.6-2.3-2.7-3
					s-2.4-1.1-3.8-1.1S145.3,6.7,144.1,7.4z"/>
				<path id="EAT" class="st1" d="M166,1h22.1v5.8h-14.8v5.2h13.4v5.8l-13.4,0v5.3h15.2V29H166V1z M213.6,29l-1.9-5h-12.1l-2,5h-7.5
					l12-28h7.5l11.8,28H213.6z M201.8,18.5h7.8l-3.8-10L201.8,18.5z M221.5,1h24v6h-8.4v22h-7.3V7h-8.3V1z"/>
			</g>
		</g>
	</g>
</g>
</svg>
