<svg id="Warstwa_1" xmlns="http://www.w3.org/2000/svg" viewBox="0 0 50 50"><style>.st0{fill:#4f4f4f}.st1{fill:#ff4070}.st2{fill:none;stroke:#4f4f4f}</style><title>icon/customers</title><g id="icon_x2F_customers"><g id="Group-3" transform="translate(1 2)"><g id="icon_x2F_chat-with-love"><g id="Chat-with-love" transform="translate(1.5)"><path class="st0" d="M7.5 18l-2.2-4.1C2.2 13 0 10.2 0 7.1 0 3.2 3.4 0 7.5 0S15 3.2 15 7.1c0 3.1-2.2 5.9-5.3 6.8L7.5 18zm0-17C3.9 1 1 3.7 1 7.1c0 2.7 1.9 5.1 4.6 5.8l.4.2 1.5 2.8L9 13.1l.4-.1c2.7-.8 4.6-3.2 4.6-5.8C14 3.7 11.1 1 7.5 1z" id="Oval-5"/><g id="icon_x2F_love" transform="translate(3.75 3.75)"><path class="st1" d="M4.3 7.3C1.9 4.8.6 3.3.4 2.6.1 1.6 1.6.7 2.3.7c.5 0 1.2.6 2 1.9C5.1 1.3 5.7.7 6 .7c.5 0 2.1-.4 1.5 1.9C7.1 4.2 6 5.7 4.3 7.3z" id="Path-19"/></g></g></g><g id="icon_x2F_chat-with-love_1_" transform="translate(16 9)"><g id="Chat-with-love_1_" transform="translate(1.5)"><path class="st0" d="M7.5 18l-2.2-4.1C2.2 13 0 10.2 0 7.1 0 3.2 3.4 0 7.5 0S15 3.2 15 7.1c0 3.1-2.2 5.9-5.3 6.8L7.5 18zm0-17C3.9 1 1 3.7 1 7.1c0 2.7 1.9 5.1 4.6 5.8l.4.2 1.5 2.8L9 13.1l.4-.1c2.7-.8 4.6-3.2 4.6-5.8C14 3.7 11.1 1 7.5 1z" id="Oval-5_1_"/><g id="icon_x2F_love_1_" transform="translate(3.75 3.75)"><path class="st1" d="M4.3 7.3C1.9 4.8.6 3.3.4 2.6.1 1.6 1.6.7 2.3.7c.5 0 1.2.6 2 1.9C5.1 1.3 5.7.7 6 .7c.5 0 2.1-.4 1.5 1.9C7.1 4.2 6 5.7 4.3 7.3z" id="Path-19_1_"/></g></g></g><g id="icon_x2F_chat-with-love_2_" transform="translate(31 1)"><g id="Chat-with-love_2_" transform="translate(1.5)"><path class="st0" d="M7.5 18l-2.2-4.1C2.2 13 0 10.2 0 7.1 0 3.2 3.4 0 7.5 0S15 3.2 15 7.1c0 3.1-2.2 5.9-5.3 6.8L7.5 18zm0-17C3.9 1 1 3.7 1 7.1c0 2.7 1.9 5.1 4.6 5.8l.4.2 1.5 2.8L9 13.1l.4-.1c2.7-.8 4.6-3.2 4.6-5.8C14 3.7 11.1 1 7.5 1z" id="Oval-5_2_"/><g id="icon_x2F_love_2_" transform="translate(3.75 3.75)"><path class="st1" d="M4.3 7.3C1.9 4.8.6 3.3.4 2.6.1 1.6 1.6.7 2.3.7c.5 0 1.2.6 2 1.9C5.1 1.3 5.7.7 6 .7c.5 0 2.1-.4 1.5 1.9C7.1 4.2 6 5.7 4.3 7.3z" id="Path-19_2_"/></g></g></g><g id="man1" transform="translate(0 18)"><g id="icon_x2F_man1"><g id="Group" transform="translate(.75 .75)"><path class="st0" d="M8.5 15.6c-1.5 0-2.9-.2-4-.6-1.7-.6-2.1-1.5-2.1-2.1v-7h12.1V13c0 1.9-3.2 2.6-6 2.6zM3.4 6.9V13c0 .9 2.3 1.7 5.1 1.7s5.1-.7 5.1-1.7V6.9H3.4z" id="Path-3"/><path class="st0" d="M14.5 7.1H2.4L0 1.2l4.8 1.2L6 1.2h3.6L12 3.6 15.8 0l-1.3 7.1zm-11.4-1h10.6l.6-3.2L12.2 5 9.3 2.2H6.5L5.1 3.5l-3.4-.9 1.4 3.5z" id="Path-20"/></g><path transform="rotate(-45.001 5.25 16.5)" class="st0" d="M4.2 16h2.1v1H4.2z" id="Path-22"/><path transform="rotate(-45.001 12 16.5)" class="st0" d="M11.5 15.4h1v2.1h-1z" id="Path-22_1_"/></g><g id="icon_x2F_woman" transform="translate(16 10)"><g id="Group_1_" transform="translate(.75 .75)"><path class="st0" d="M13.5 9H2.9C.4 8.2.1 7.7 0 7.5c-.3-.7 1.4-3.3 2-4C3.9 1.2 6 0 8.3 0c3.4 0 6.1 2.4 8.1 7.1l.2.4L13.5 9zM3.1 8h10.1l2-1c-1.8-4.1-4.1-6-7-6-1.8 0-3.7 1.1-5.4 3.1-.9 1.1-1.6 2.5-1.8 3 .2.2.9.5 2.1.9z" id="Path-21"/><path class="st0" d="M8.2 15.8c-1.8 0-3.4-.5-4.3-1.4-.6-.6-.9-1.3-.9-2.1V6.8c0-.6.3-.9.9-1 .4 0 1 .1 2 .4l.4.1c1.4.4 1.6.5 2 .5.4 0 .9-.1 1.6-.2.2 0 .4-.1.7-.1 1.2-.3 1.6-.3 2-.3.2 0 .9 0 .9.7v5.5c0 1.9-2.2 3.4-5.3 3.4zM4 6.8v5.5c0 .5.2 1 .6 1.4.7.7 2.1 1.1 3.6 1.1 2.5 0 4.3-1.1 4.3-2.5V7.1c-.3 0-.6.1-1.7.3-.3.1-.5.1-.7.1-.8.2-1.3.3-1.9.3-.5 0-.8-.2-2.2-.6l-.4-.1c-.8-.3-1.3-.4-1.6-.3z" id="Path-3_1_"/></g><path transform="rotate(-45.001 6 16.5)" class="st0" d="M4.9 16H7v1H4.9z" id="Path-22_2_"/><path transform="rotate(-45.001 12.75 16.5)" class="st0" d="M12.3 15.4h1v2.1h-1z" id="Path-22_3_"/></g><g id="icon_x2F_man2" transform="translate(31)"><g id="Group_2_" transform="translate(1.5 2.25)"><path class="st0" d="M8.6 14.3c-1.4 0-2.7-.2-3.7-.6-1.6-.6-1.9-1.5-1.9-2.1V4.5h11.2v7.1c0 1.8-2.8 2.7-5.6 2.7zM4 5.5v6.1c0 .9 2 1.7 4.6 1.7s4.6-.7 4.6-1.7V5.5H4z" id="Path-3_2_"/><path class="st0" d="M14.2 5.3H3.4l-.2-.1C.6 3.7.3 3.2.2 3-.2 2.3-.2 1.4.2.7.6-.1 1.3-.1 4.1.1c.5 0 1 0 2 .1 1.5 0 1.6 0 2.3.1 5.9.2 5.9.8 5.9 1.2v3.8zm-10.6-1h9.6V1.6c-.5-.1-2.1-.4-4.9-.5-.6 0-.8 0-2.2-.1-1 0-1.5 0-2-.1-2.6 0-2.8.1-3 .3-.2.4-.1.9.1 1.3 0 .2.7.7 2.4 1.8z" id="Path-21_1_"/></g><path transform="rotate(-45.001 6.75 16.5)" class="st0" d="M5.7 16h2.1v1H5.7z" id="Path-22_4_"/><path transform="rotate(-45.001 13.5 16.5)" class="st0" d="M13 15.4h1v2.1h-1z" id="Path-22_5_"/></g></g></g></g></svg>