<svg id="Warstwa_1" xmlns="http://www.w3.org/2000/svg" viewBox="0 0 24 24"><style>.st0{fill:#4f4f4f}.st1{fill:#ff4070}</style><title>icon/dilute</title><g id="icon_x2F_dilute"><g id="Dilute-icon" transform="translate(2 2)"><path class="st0" d="M9.9 14.9c-1.6 0-9.5-.1-9.5-2.1s7.9-2.1 9.5-2.1c1.6 0 9.5.1 9.5 2.1s-7.9 2.1-9.5 2.1zm-8.5-2.1c.6.4 3.5 1.1 8.4 1.1 5 0 7.8-.7 8.4-1.1-.6-.4-3.5-1.1-8.4-1.1-4.9.1-7.7.7-8.4 1.1z" id="Oval-3"/><path class="st1" d="M8.8 6.8c-.2.3-.3.6-.3.9 0 .8.6 1.5 1.4 1.5.8 0 1.4-.7 1.4-1.5 0-.3-.1-.6-.3-.9l-1-2.4-1.2 2.4zm1.2-3l1.4 2.9c.2.3.3.6.3 1 0 1-.7 1.7-1.7 1.7s-1.7-.7-1.7-1.7c0-.4.1-.7.3-1L10 3.8z" id="Oval-4"/><path class="st1" d="M10 3.8l1.4 2.9c.2.3.3.6.3 1 0 1-.7 1.7-1.7 1.7s-1.7-.7-1.7-1.7c0-.4.1-.7.3-1L10 3.8z" id="Oval-4_1_"/><path class="st0" d="M10 20.7c-5.5 0-10-4.5-10-10v-9h1v9c0 5 4 9 9 9s9-4 9-9v-9h1v9c0 5.5-4.5 10-10 10z" id="Rectangle-9"/><path class="st0" d="M10 3.5c-2.5 0-10.5-.1-10.5-2s8-2 10.5-2 10.5.1 10.5 2-8 2-10.5 2zm-9.3-2c.9.4 4.3 1 9.3 1 5 0 8.5-.6 9.3-1-.9-.4-4.3-1-9.3-1s-8.5.6-9.3 1z" id="Oval-3_1_"/></g></g></svg>