<svg id="Warstwa_1" xmlns="http://www.w3.org/2000/svg" viewBox="0 0 24 24"><style>.st0{fill:#4f4f4f}</style><g id="icon_x2F_increase-revenue"><g id="Group-3" transform="translate(1 1)"><path class="st0" d="M7.2 21.8l-.7-.7L8.6 19l5.6-5.1 2.1 2.1 1.8-1.5-1.1-1 6.2-3.1-3.2 6.2-1.2-1.2-2.6 2.1-2.1-2.1-4.9 4.4-2 2zm12.4-7.1l.2.2 1.1-2.2-2.2 1.1.9.9z" id="Path-2"/><path class="st0" d="M7.9 15.7C3.5 15.7 0 12.2 0 7.9S3.5 0 7.9 0s7.9 3.5 7.9 7.9-3.6 7.8-7.9 7.8zM7.9 1C4.1 1 1 4.1 1 7.9c0 3.8 3.1 6.9 6.9 6.9s6.9-3.1 6.9-6.9C14.7 4.1 11.6 1 7.9 1z" id="Oval"/><path d="M9.2 9.7c.3-.2.6-.4.8-.7l1.1 1.2c-.4.4-.9.7-1.4 1-.5.2-1.1.4-1.6.4-.6 0-1.2-.1-1.7-.4-.5-.2-1-.6-1.3-1-.3-.3-.6-.8-.7-1.4h-1v-.7h.8v-.5h-.8v-.7h.9c.1-.5.4-1 .7-1.5.4-.4.8-.8 1.3-1S7.4 4 8 4c.5 0 1.1.1 1.6.3.5.2 1 .5 1.3.9L10 6.7c-.2-.3-.5-.5-.8-.7s-.7-.3-1-.3c-.4 0-.8.1-1.1.3-.3.3-.5.6-.7.9h2.3v.7H6.2v.5h2.5v.7H6.5c.2.3.4.6.7.8.3.2.7.3 1 .3.3 0 .6-.1 1-.2z" fill="#ff4070" id="_x20AC_"/><path class="st0" d="M17.7 1.1v.6h-.9v.9h-.6v-.9h-.8v-.6h.8V.3h.6v.8z" id="_x2B_"/><path class="st0" d="M21.9 7.4V8H21v.9h-.6V8h-.9v-.6h.9v-.9h.6v.9z" id="_x2B__1_"/><path class="st0" d="M4.6 18.4v.6h-.9v.9h-.6V19h-.8v-.6h.8v-.9h.6v.9z" id="_x2B__2_"/></g></g></svg>