<svg id="Warstwa_1" xmlns="http://www.w3.org/2000/svg" viewBox="0 0 48 48"><style>.st0{fill:#4a4a4a}.st1{fill:#4f4f4f}.st2{fill:#ff4070}</style><title>icon/strength+love</title><g id="icon_x2F_strength_x2B_love"><g id="Group_1_"><g id="icon_x2F_strength"><g id="Group"><path class="st0" d="M31 48.1c-7.3-.9-12.6-1.9-15.8-2.9C12 44.1 7 41.7.5 38.1l-.3-.2v-.3c.3-5.3.9-9.3 1.7-11.9.8-2.6 3.1-7.7 6.8-15.3.2-.4.3-.6.4-.7.1-.1 8.2-6.2 13-9.8l.2-.1c.6-.1 1-.1 1.3.1.3.2 5.7 4.8 6.3 5.6.4.5.5 1.4-1 2.7L26 11c-1 .5-1.7.6-2.3.4-.5-.2-1-.6-1.7-1.1-1-1.2-1.1-1.6-1.1-1.9 0-.4.3-.9 1.1-1.7l.7.7c-.7.7-.8 1-.8 1s.1.3.8 1.2c.5.4.9.7 1.3.9.2.1.6.1 1.4-.3L28 7.5c.4-.4 1.1-1 .9-1.4-.5-.7-5.5-5-6-5.4 0 0-.1 0-.4.1-8 6.1-12.3 9.3-12.8 9.7 0 .1-.1.1-.1.3C6 18.3 3.7 23.4 2.9 26c-.8 2.5-1.3 6.3-1.7 11.4 6.3 3.5 11.1 5.8 14.3 6.9 3.2 1 8.4 2 15.6 2.9 4.8-.2 8.1-.4 9.8-.8 1.7-.3 4-1.2 6.8-2.6l.4.9c-2.9 1.4-5.3 2.3-7 2.7-1.8.3-5.2.5-10.1.7z" id="Path-13"/><path class="st0" d="M38.9 26.7l-.6-.7c1.3-1.1 2.6-1.8 3.8-2.1 1.2-.3 3.1-.3 5.9 0l-.1 1c-2.6-.2-4.5-.2-5.6 0-1.1.2-2.2.8-3.4 1.8z" id="Path-14"/><path class="st1" d="M23.2 31.6l-1-.2c.8-3.8 3.8-6.2 8.8-7 5-.8 8.6.5 10.9 4l-.9.5c-2-3.1-5.2-4.3-9.9-3.5-4.6.7-7.2 2.8-7.9 6.2z" id="Path-15"/><path class="st0" d="M22.7 29.7c-1-.5-1.8-.9-2.4-1-.6-.1-1.4-.1-2.4 0l-.1-1c1.1-.2 2-.2 2.7 0 .7.2 1.6.5 2.7 1.1l-.5.9z" id="Path-16"/><path class="st0" d="M14.9 33.4l-.9-.6c1.8-3 2.9-5.3 3.1-7 .1-.5 0-1.3-.2-2.3-.2-1.3-.5-3-.5-5.2 0-.9.1-2.2.4-4.1.1-.4.2-1 .3-1.8l1 .2c-.1.8-.2 1.4-.3 1.7-.3 1.8-.4 3.1-.4 3.9 0 2.2.3 3.8.5 5.1.2 1.1.3 2 .2 2.6-.2 1.9-1.3 4.3-3.2 7.5z" id="Path-17"/><path class="st0" d="M22.7 15.4c-1.2 0-2.8-.1-5.3-.2l.1-1c6 .4 7.2.2 7.4 0 4.4-2.1 5.6-3.3 5.6-3.6 0-.6-.5-1.4-1.4-2.1l.6-.8c1.2 1 1.8 1.9 1.8 2.9 0 .4 0 1.5-6.2 4.5-.3.2-.9.3-2.6.3z" id="Path-18"/></g></g><path class="st2" d="M33.4 41.3c-5-4.2-7.7-6.8-8.2-7.9-.6-1.7 2.4-3.2 4-3.2 1.1 0 2.4 1.1 4.1 3.2 1.7-2.1 2.9-3.2 3.6-3.2 1.1 0 4.3-.7 3 3.2-.7 2.6-2.9 5.3-6.5 7.9z" id="Path-19"/></g></g></svg>